<?xml version="1.0" encoding="UTF-8"?>
<svg width="12px" height="12px" viewBox="0 0 12 12" version="1.1" xmlns="http://www.w3.org/2000/svg" xmlns:xlink="http://www.w3.org/1999/xlink">
    <!-- Generator: sketchtool 61 (101010) - https://sketch.com -->
    <title>8E0ACB39-680F-4D0C-8BC4-1D14B9A16964</title>
    <desc>Created with sketchtool.</desc>
    <g id="handoff" stroke="none" stroke-width="1" fill="none" fill-rule="evenodd" opacity="0.400000006">
        <g id="hero" transform="translate(-156.000000, -827.000000)" fill="#FFFFFF" fill-rule="nonzero">
            <g id="Group" transform="translate(70.000000, 826.000000)">
                <path d="M97.03125,1 C97.3020847,1 97.5312491,1.08854078 97.71875,1.265625 C97.9062509,1.44270922 98,1.66666531 98,1.9375 L98,11.96875 C98,12.2395847 97.9062509,12.4791656 97.71875,12.6875 C97.5312491,12.8958344 97.3020847,13 97.03125,13 L87.03125,13 C86.7604153,13 86.5208344,12.8958344 86.3125,12.6875 C86.1041656,12.4791656 86,12.2395847 86,11.96875 L86,1.9375 C86,1.66666531 86.0989573,1.44270922 86.296875,1.265625 C86.4947927,1.08854078 86.7395819,1 87.03125,1 L97.03125,1 Z M89.71875,11 L89.71875,5.65625 L88,5.65625 L88,11 L89.71875,11 Z M88.25,4.59375 C88.4166675,4.7604175 88.6354153,4.84375 88.90625,4.84375 C89.1770847,4.84375 89.4010408,4.75520922 89.578125,4.578125 C89.7552092,4.40104078 89.84375,4.18750125 89.84375,3.9375 C89.84375,3.66666531 89.7604175,3.44270922 89.59375,3.265625 C89.4270825,3.08854078 89.2083347,3 88.9375,3 C88.6666653,3 88.4427092,3.08854078 88.265625,3.265625 C88.0885408,3.44270922 88,3.66666531 88,3.9375 C88,4.18750125 88.0833325,4.40624906 88.25,4.59375 Z M96,11 L96,7.875 C96,7.10416281 95.8177102,6.52083531 95.453125,6.125 C95.0885398,5.72916469 94.6145862,5.53125 94.03125,5.53125 C93.4062469,5.53125 92.8854187,5.82291375 92.46875,6.40625 L92.46875,5.65625 L90.75,5.65625 L90.75,11 L92.46875,11 L92.46875,7.96875 C92.46875,7.76041563 92.4895831,7.61458375 92.53125,7.53125 C92.6979175,7.11458125 92.9895813,6.90625 93.40625,6.90625 C93.9895862,6.90625 94.28125,7.29166281 94.28125,8.0625 L94.28125,11 L96,11 Z" id="icon-linkedin_bright"></path>
            </g>
        </g>
    </g>
</svg>