<?xml version="1.0" encoding="UTF-8"?>
<svg width="14px" height="14px" viewBox="0 0 14 14" version="1.1" xmlns="http://www.w3.org/2000/svg" xmlns:xlink="http://www.w3.org/1999/xlink">
    <g id="handoff" stroke="none" stroke-width="1">
        <g id="hero" transform="translate(-198.000000, -826.000000)">
            <g id="Group" transform="translate(70.000000, 826.000000)">
                <path d="M130.03125,2.125 C131.406257,0.70832625 133.06249,0 135,0 C136.93751,0 138.588535,0.703117969 139.953125,2.109375 C141.317715,3.51563203 142,5.20832344 142,7.1875 C142,8.75000781 141.552088,10.1562437 140.65625,11.40625 C139.760412,12.6562563 138.61459,13.5208309 137.21875,14 L137.09375,14 C136.871527,14 136.748071,13.9012356 136.72338,13.703704 L136.718906,13.6123438 L136.718906,13.6123438 L136.734375,12.921875 C136.744792,12.4739561 136.75,12.0625019 136.75,11.6875 C136.75,11.0833303 136.583335,10.6354181 136.25,10.34375 C137.208338,10.2187494 137.984372,9.91146078 138.578125,9.421875 C139.171878,8.93228922 139.46875,8.06250625 139.46875,6.8125 C139.46875,6.06249625 139.229169,5.41666938 138.75,4.875 C138.958334,4.27083031 138.937501,3.63542 138.6875,2.96875 L138.53125,2.96875 C138.052081,2.96875 137.458337,3.2187475 136.75,3.71875 C136.14583,3.5520825 135.562503,3.46875 135,3.46875 C134.437497,3.46875 133.85417,3.5520825 133.25,3.71875 C132.541663,3.2187475 131.947919,2.96875 131.46875,2.96875 L131.3125,2.96875 C131.062499,3.63542 131.041666,4.27083031 131.25,4.875 C130.770831,5.41666938 130.53125,6.06249625 130.53125,6.8125 C130.53125,8.06250625 130.822914,8.93228922 131.40625,9.421875 C131.989586,9.91146078 132.760412,10.2187494 133.71875,10.34375 C133.489582,10.5729178 133.34375,10.8958313 133.28125,11.3125 C133.031249,11.4375006 132.760418,11.5 132.46875,11.5 C131.947914,11.5 131.541668,11.2395859 131.25,10.71875 C130.979165,10.2604144 130.614586,10.0104169 130.15625,9.96875 C129.718748,9.96875 129.708331,10.1145819 130.125,10.40625 C130.437502,10.5729175 130.697916,10.9270806 130.90625,11.46875 C130.927083,11.5520837 130.96875,11.6510411 131.03125,11.765625 C131.09375,11.8802089 131.265624,12.0312491 131.546875,12.21875 C131.828126,12.4062509 132.166665,12.5 132.5625,12.5 C132.854168,12.5 133.083332,12.4791669 133.25,12.4375 L133.25,13.65625 C133.25,13.8854178 133.135418,14 132.90625,14 L132.78125,14 C131.364576,13.5208309 130.213546,12.6614645 129.328125,11.421875 C128.442704,10.1822855 128,8.77084125 128,7.1875 C128,5.20832344 128.677077,3.52084031 130.03125,2.125 Z" id="icon-github_bright"></path>
            </g>
        </g>
    </g>
</svg>