<?xml version="1.0" ?><!DOCTYPE svg PUBLIC '-//W3C//DTD SVG 1.1//EN' 'http://www.w3.org/Graphics/SVG/1.1/DTD/svg11.dtd'
><svg
  enable-background="new 0 0 512 512"
  height="512px"
  id="Layer_1"
  version="1.1"
  viewBox="0 0 512 512"
  width="512px"
  xml:space="preserve"
  xmlns="http://www.w3.org/2000/svg"
  xmlns:xlink="http://www.w3.org/1999/xlink"
>
  <g>
    <path
      clip-rule="evenodd"
      d="M287.977,80.361c0-9.067,7.267-16.323,15.878-16.323   c9.08,0,16.331,7.255,16.331,16.323c0,8.615-7.251,15.87-16.331,15.87C295.243,96.231,287.977,88.976,287.977,80.361   L287.977,80.361z M111.967,303.877v-111.98c0-17.229-14.519-31.732-31.757-31.732c-17.691,0-32.21,14.503-32.21,31.732v111.98   c0,17.683,14.52,32.193,32.21,32.193C97.449,336.07,111.967,321.56,111.967,303.877L111.967,303.877z M384.154,160.165H127.846   v207.646c0,16.776,13.605,30.381,30.389,30.381h1.821v81.615c0,17.682,14.511,32.193,32.203,32.193   c17.246,0,31.757-14.512,31.757-32.193v-81.615h63.96v81.615c0,17.682,14.519,32.193,32.209,32.193   c17.239,0,31.758-14.512,31.758-32.193v-81.615h2.267c16.331,0,29.944-13.604,29.944-30.381V160.165z M400.032,191.897v111.98   c0,17.683,14.519,32.193,32.211,32.193c17.238,0,31.757-14.511,31.757-32.193v-111.98c0-17.229-14.519-31.732-31.757-31.732   C414.551,160.165,400.032,174.668,400.032,191.897L400.032,191.897z M224.016,80.361c0,8.615-7.259,15.87-15.879,15.87   c-9.072,0-15.878-7.255-15.878-15.87c0-9.067,6.806-16.323,15.878-16.323C216.757,64.039,224.016,71.294,224.016,80.361   L224.016,80.361z M127.846,144.295h256.308c0-42.62-20.864-80.709-53.075-103.827l26.756-26.757c3.188-3.171,3.188-8.162,0-11.333   c-3.173-3.171-8.157-3.171-11.33,0l-29.491,29.476c-18.145-9.981-39.009-15.87-60.795-15.87c-22.224,0-43.087,5.889-61.232,15.87   L165.495,2.378c-2.719-3.171-8.166-3.171-10.885,0c-3.172,3.171-3.172,8.162,0,11.333l26.311,26.757   C149.163,63.586,127.846,101.675,127.846,144.295L127.846,144.295z"
    />
  </g>
</svg>
