<?xml version="1.0" encoding="UTF-8"?>
<svg width="12px" height="12px" viewBox="0 0 12 12" version="1.1" xmlns="http://www.w3.org/2000/svg" xmlns:xlink="http://www.w3.org/1999/xlink">
    <!-- Generator: sketchtool 61 (101010) - https://sketch.com -->
    <title>42574997-748A-4232-A7D7-E808C285D5AD</title>
    <desc>Created with sketchtool.</desc>
    <g id="handoff" stroke="none" stroke-width="1" fill="none" fill-rule="evenodd" opacity="0.400000006">
        <g id="contact-us" transform="translate(-1251.000000, -101.000000)" fill="#4F5D6B" fill-rule="nonzero">
            <g id="Group-6" transform="translate(1207.000000, 100.000000)">
                <path d="M53.75,1 C54.9921875,1 56,2.0078125 56,3.25 L56,10.75 C56,11.9921875 54.9921875,13 53.75,13 L52.28125,13 L52.28125,8.3515625 L53.8359375,8.3515625 L54.0703125,6.5390625 L52.28125,6.5390625 L52.28125,5.3828125 C52.28125,4.859375 52.421875,4.5078125 53.1796875,4.5078125 L54.1328125,4.5 L54.1328125,2.8828125 C53.96875,2.859375 53.3984375,2.8125 52.7421875,2.8125 C51.359375,2.8125 50.40625,3.65625 50.40625,5.203125 L50.40625,6.5390625 L48.84375,6.5390625 L48.84375,8.3515625 L50.40625,8.3515625 L50.40625,13 L46.25,13 C45.0078125,13 44,11.9921875 44,10.75 L44,3.25 C44,2.0078125 45.0078125,1 46.25,1 L53.75,1 Z" id="icon-/-social_facebook"></path>
            </g>
        </g>
    </g>
</svg>