<?xml version="1.0" encoding="UTF-8"?>
<svg width="14px" height="12px" viewBox="0 0 14 12" version="1.1" xmlns="http://www.w3.org/2000/svg" xmlns:xlink="http://www.w3.org/1999/xlink">
    <!-- Generator: sketchtool 61 (101010) - https://sketch.com -->
    <title>6EB1B9EA-BF67-4563-9389-F067ACBBB504</title>
    <desc>Created with sketchtool.</desc>
    <g id="handoff" stroke="none" stroke-width="1" fill="none" fill-rule="evenodd" opacity="0.400000006">
        <g id="contact-us" transform="translate(-1207.000000, -101.000000)" fill="#4F5D6B" fill-rule="nonzero">
            <g id="Group-6" transform="translate(1207.000000, 100.000000)">
                <path d="M14,2.81770833 C13.644066,3.35243323 13.1694945,3.82985901 12.5762712,4.25 L12.5762712,4.59375 C12.5762712,6.59896836 11.8298097,8.41796059 10.3368644,10.0507812 C8.84391909,11.6836019 6.86159428,12.5 4.38983051,12.5 C2.80790169,12.5 1.34463949,12.0798653 0,11.2395833 L0.249395244,11.2676446 C0.439064286,11.2871316 0.583332839,11.296875 0.68220339,11.296875 C2.00706877,11.296875 3.19349758,10.8958373 4.24152542,10.09375 C3.62852801,10.0746527 3.07486123,9.88845663 2.58050847,9.53515625 C2.08615572,9.18185587 1.75000089,8.72830138 1.5720339,8.17447917 C1.80932322,8.2126738 1.98728754,8.23177083 2.1059322,8.23177083 C2.30367331,8.23177083 2.56073288,8.19357677 2.87711864,8.1171875 C2.22457301,7.98350628 1.67584968,7.663631 1.2309322,7.15755208 C0.826461768,6.69748034 0.605844288,6.17033852 0.56907475,5.57611339 L0.563559322,5.3671875 C0.998589746,5.59635531 1.43361364,5.7109375 1.86864407,5.7109375 C1.01835733,5.1762126 0.593220339,4.40278284 0.593220339,3.390625 C0.593220339,2.91319206 0.721750127,2.45486331 0.978813559,2.015625 C2.50142004,3.82987018 4.46891449,4.79427026 6.88135593,4.90885417 C6.84180771,4.77517294 6.8220339,4.5651056 6.8220339,4.27864583 C6.8220339,3.49565581 7.09886729,2.83680823 7.65254237,2.30208333 C8.20621746,1.76735844 8.88841403,1.5 9.69915254,1.5 C10.5098911,1.5 11.2019745,1.79600398 11.7754237,2.38802083 C12.368647,2.29253424 12.9816353,2.06336987 13.6144068,1.70052083 C13.4166657,2.36892695 12.9915287,2.8845468 12.3389831,3.24739583 C12.9519805,3.19010388 13.5056472,3.04687615 14,2.81770833 Z" id=""></path>
            </g>
        </g>
    </g>
</svg>