<?xml version="1.0" encoding="utf-8"?>
<!-- Svg Vector Icons : http://www.onlinewebfonts.com/icon -->
<!DOCTYPE svg PUBLIC "-//W3C//DTD SVG 1.1//EN" "http://www.w3.org/Graphics/SVG/1.1/DTD/svg11.dtd">
<svg
  version="1.1"
  xmlns="http://www.w3.org/2000/svg"
  xmlns:xlink="http://www.w3.org/1999/xlink"
  x="0px"
  y="0px"
  viewBox="0 0 1000 1000"
  enable-background="new 0 0 1000 1000"
  xml:space="preserve"
>
  <metadata>Svg Vector Icons : http://www.onlinewebfonts.com/icon</metadata>
  <g>
    <g id="_x35_151e0c8492e5103c096af88a51f17e3">
      <path
        d="M934.5,292.6v414.5c0,26.9-14.5,51.9-37.7,65.5L537.7,979.9c-11.5,6.7-24.5,10.1-37.8,10.1c-13.1,0-26.2-3.4-37.7-10.1L342.3,909c-17.9-10-9.2-13.5-3.2-15.6c23.9-8.3,28.7-10.2,54.2-24.7c2.7-1.5,6.2-0.9,8.9,0.7l92.1,54.7c3.3,1.9,8.1,1.9,11.1,0l359.1-207.3c3.3-1.9,5.5-5.7,5.5-9.7V292.6c0-4.1-2.1-7.9-5.6-9.9l-359-207.1c-3.3-1.9-7.7-1.9-11.1,0L135.5,282.8c-3.5,2-5.7,5.9-5.7,9.8v414.5c0,4,2.2,7.7,5.7,9.6l98.4,56.9c53.4,26.7,86.1-4.8,86.1-36.4V328c0-5.8,4.6-10.3,10.4-10.3h45.5c5.7,0,10.4,4.6,10.4,10.3v409.2c0,71.2-38.8,112.1-106.3,112.1c-20.7,0-37.1,0-82.7-22.5l-94.2-54.3c-23.3-13.4-37.7-38.6-37.7-65.5V292.6c0-26.9,14.4-52.1,37.7-65.5L462.2,19.6c22.7-12.9,52.9-12.9,75.5,0l359.1,207.5C920.1,240.6,934.5,265.7,934.5,292.6z M625,667.6c-107.2,0-130.7-26.9-138.6-80.2c-0.9-5.7-5.8-9.9-11.6-9.9h-52.4c-6.5,0-11.7,5.2-11.7,11.7c0,68.2,37.1,149.5,214.3,149.5c128.3,0,201.9-50.5,201.9-138.7c0-87.5-59.1-110.8-183.6-127.2C517.6,456,504.8,447.4,504.8,418c0-24.3,10.8-56.7,104-56.7c83.2,0,113.9,17.9,126.5,74c1.1,5.3,5.9,9.1,11.4,9.1h52.6c3.3,0,6.4-1.4,8.6-3.7c2.2-2.5,3.4-5.7,3.1-9C802.7,335,738.5,290,608.7,290c-115.5,0-184.3,48.7-184.3,130.4c0,88.6,68.5,113.2,179.3,124.1c132.6,13,142.9,32.4,142.9,58.5C746.6,648.2,710.3,667.6,625,667.6z"
      />
    </g>
  </g>
</svg>
