<?xml version="1.0" encoding="UTF-8"?>
<svg width="197px" height="67px" viewBox="0 0 197 67" version="1.1" xmlns="http://www.w3.org/2000/svg" xmlns:xlink="http://www.w3.org/1999/xlink">
    <title>Group</title>
    <g id="Page-1" stroke="none" stroke-width="1" fill="none" fill-rule="evenodd">
        <g id="Artboard" transform="translate(-197.000000, -378.000000)" fill="#FFFFFF" fill-rule="nonzero">
            <g id="Group" transform="translate(197.000000, 378.000000)">
                <g id="logo-glazed" transform="translate(78.000000, 16.000000)">
                    <g id="Group_32" transform="translate(0.191000, 0.099000)">
                        <path d="M15.106,11.3 L15.106,9.244 L19.98,9.244 L19.98,26.169 C19.98,32.108 16.115,35.669 10.023,35.669 C7.1726438,35.7293214 4.36685209,34.9548784 1.951,33.441 L3.721,29.386 C5.51716883,30.6100347 7.63941659,31.2667052 9.813,31.271 C12.897,31.271 15.068,29.577 15.068,26.378 L15.068,25.084 C13.6717379,26.7576356 11.572169,27.6806613 9.395,27.578 C4.902,27.578 0.904,23.827 0.904,18.173 C0.904,12.499 4.904,8.749 9.395,8.749 C11.5957888,8.64398834 13.7155629,9.59085293 15.106,11.3 Z M6.006,18.173 C6.12285228,20.704344 8.24855766,22.6740047 10.7814541,22.5978956 C13.3143506,22.5217865 15.3179578,20.4280471 15.2826115,17.8942539 C15.2472652,15.3604608 13.1860339,13.3234257 10.652,13.318 C9.37671729,13.2970468 8.15046066,13.8088297 7.2684367,14.7301434 C6.38641273,15.651457 5.92852337,16.89884 6.005,18.172 L6.006,18.173 Z" id="Path_138"></path>
                        <polygon id="Path_139" points="25.2 27.691 25.2 0.276 30.169 0.276 30.169 27.691"></polygon>
                        <path d="M48.693,27.691 L48.693,25.654 C47.3543988,27.3191827 45.3058427,28.2514574 43.171,28.167 C38.071,28.167 34.243,23.997 34.243,18.457 C34.243,12.917 38.069,8.748 43.171,8.748 C45.3105194,8.66110831 47.3626938,9.60209085 48.693,11.28 L48.693,9.243 L53.547,9.243 L53.547,27.691 L48.693,27.691 Z M39.326,18.457 C39.326,21.275 41.173,23.54 44.085,23.54 C46.922,23.54 48.844,21.37 48.844,18.457 C48.844,15.544 46.922,13.374 44.085,13.374 C41.173,13.374 39.326,15.639 39.326,18.457 Z" id="Path_140"></path>
                        <polygon id="Path_141" points="64.821 23.255 74.131 23.255 74.131 27.691 57.987 27.691 57.987 24.112 67.3 13.66 58.31 13.66 58.31 9.243 73.922 9.243 73.922 12.879"></polygon>
                        <path d="M95.3420121,18.438 C95.3427232,18.9976999 95.3110033,19.5569712 95.247,20.113 L82.168,20.113 C82.4804754,22.4452977 84.5622315,24.1260742 86.908,23.94 C88.6211109,23.9083288 90.2700493,23.2826866 91.573,22.17 L94.485,25.37 C92.3232979,27.2819768 89.5066367,28.2851123 86.623,28.17 C80.988,28.17 77.047,24.305 77.047,18.517 C77.047,12.729 80.854,8.75099829 86.375,8.75099829 C91.686,8.748 95.3420121,12.689 95.3420121,18.438 Z M82.186,16.725 L90.354,16.725 C89.897,14.345 88.488,13.031 86.337,13.031 C83.976,13.031 82.625,14.421 82.186,16.725 Z" id="Path_142"></path>
                        <path d="M112.613,11.165 L112.613,0.276 L117.562,0.276 L117.562,27.691 L112.708,27.691 L112.708,25.654 C111.369499,27.3193122 109.320874,28.2516184 107.186,28.167 C102.086,28.167 98.258,23.997 98.258,18.457 C98.258,12.917 102.085,8.748 107.186,8.748 C109.27263,8.66485943 111.278925,9.55839421 112.613,11.165 L112.613,11.165 Z M103.341,18.457 C103.341,21.275 105.188,23.54 108.1,23.54 C110.938,23.54 112.86,21.37 112.86,18.457 C112.86,15.544 110.938,13.374 108.1,13.374 C105.188,13.374 103.341,15.639 103.341,18.457 Z" id="Path_143"></path>
                    </g>
                </g>
                <path d="M28.5062873,0 L0.966298426,16.5593134 L0.888917171,16.5197279 L0,17.0546157 L0,49.9888319 L28.4946801,67 L57,49.9598668 L57,17.0584776 L56.0540142,16.4840044 L51.3618084,13.6377064 L51.3772845,13.6212929 L47.5430434,11.2954002 L37.9835564,17.0468917 L38.0029017,6.8415425 L38.0048363,6.8396115 L38.0048363,5.74956049 L38.0048363,5.72638845 L37.0598177,5.15384615 L37.0395052,5.16543216 L28.5062873,0 Z M2.87471364,17.6657781 L28.5024181,2.25541113 L35.1630098,6.28831023 L21.8544011,14.2556273 L9.50822176,21.648471 L2.87471364,17.6657781 Z M10.4745202,23.3207194 L22.4163823,16.171182 L36.0664358,8.0001441 L36.0470905,18.2112863 L19.9672656,27.8865753 L19.9624294,27.8885062 L19.4623529,28.1897426 L19.4594512,28.1945702 L18.9390623,28.5131856 L18.9390623,29.5443411 L18.9390623,37.4527626 L10.4745202,42.5805401 L10.4745202,23.3207194 Z M27.9326987,32.5991873 L27.9239933,32.5943597 L27.7953469,32.5190507 L27.5041999,32.3471915 L23.9243496,30.2385364 L21.8418266,29.0123498 L25.090872,27.058175 L47.5391742,13.5527423 L54.1997659,17.5933654 L28.5391743,32.9573882 L27.9326987,32.5991873 Z M29.4619457,34.6566707 L46.7373111,24.3142203 L55.0654687,19.3274058 L55.0654687,48.8649883 L28.4946801,64.7503819 L1.93356411,48.8929879 L1.93356411,19.3554053 L8.5399888,23.3207194 L8.5399888,43.9042424 L8.53708701,44.6862986 L9.18128596,45.0715336 L9.63783536,45.3467014 L9.63976989,45.345736 L28.4908109,56.6073435 L48.0460215,45.1487736 L48.4590439,44.9083639 L48.4590439,44.9064328 L48.4590439,31.2291409 L39.0388433,36.7923596 L39.0388433,36.7875321 L38.7825179,36.9439433 L37.9003716,37.4643485 L36.0596651,38.5505375 L29.4619457,42.4473009 L29.4619457,34.6566707 Z M20.8735936,38.4752285 L20.8735936,36.2806438 L20.8735936,30.6845981 L21.1802168,30.8651469 L26.8184086,34.206747 L27.0041236,34.3177796 L27.5274144,34.6296365 L27.5274144,42.439577 L20.8735936,38.4752285 Z M39.7846051,38.5949506 L46.5245125,34.615154 L46.5245125,42.6452287 L39.7846051,38.5949506 Z M11.5104617,44.2122373 L19.0551342,39.641554 L23.7792598,42.4540594 L28.4917783,45.2627029 L28.4927455,45.2636683 L28.4937127,45.2636683 L29.0421524,44.9402253 L29.4619457,44.6930571 L29.4619457,44.691126 L37.8887644,39.7149321 L38.7428601,40.2314753 L38.7428601,40.2266479 L45.5988393,44.3435455 L28.5004837,54.3635184 L11.5104617,44.2122373 Z" id="Fill-1"></path>
            </g>
        </g>
    </g>
</svg>