<?xml version="1.0" encoding="UTF-8"?>
<svg width="107px" height="41px" viewBox="0 0 107 41" version="1.1" xmlns="http://www.w3.org/2000/svg" xmlns:xlink="http://www.w3.org/1999/xlink">
    <!-- Generator: sketchtool 61 (101010) - https://sketch.com -->
    <title>65477406-EA64-47B5-9889-2FBC56CA19DD</title>
    <desc>Created with sketchtool.</desc>
    <g id="handoff" stroke="none" stroke-width="1" fill="none" fill-rule="evenodd">
        <g id="hero" transform="translate(-75.000000, -35.000000)" fill="#FFFFFF">
            <g id="logo-glazed-outline" transform="translate(75.000000, 35.000000)">
                <path d="M54.1375595,17.9612605 L54.1375595,16.944931 L56.6,16.944931 L56.6,25.3071802 C56.6,28.1734909 54.7435336,29.9194166 51.8000926,29.9955978 L51.5977281,29.9981981 C50.160482,30.0297497 48.745383,29.6463395 47.5276658,28.8954459 L48.4071088,26.890442 C49.3095979,27.4943572 50.3757132,27.8182913 51.4675705,27.820349 C53.018908,27.820349 54.1094174,26.9837784 54.1094174,25.4005166 L54.1094174,24.7679033 C53.4507029,25.5433581 52.4805774,25.992232 51.459119,26.0019188 L51.2670575,25.9985609 C49.0086479,25.9985609 47,24.1456607 47,21.3559397 C47,18.6310959 48.9163087,16.7868146 51.1099214,16.7025077 L51.2670575,16.6994908 C52.3735448,16.6480282 53.4390641,17.1163923 54.1375595,17.9612605 Z M62.2,12 L62.2,26.0869565 L59.8,26.0869565 L59.8,12 L62.2,12 Z M84.4924545,16.6956522 L84.4924545,18.5446988 L79.9859497,23.8281982 L84.6,23.8281982 L84.6,26.0869565 L76.6,26.0869565 L76.6,24.2628488 L81.2140503,18.9437224 L76.7561145,18.9437224 L76.7561145,16.6956522 L84.4924545,16.6956522 Z M71.7869423,17.2428642 L71.7869423,16.1761917 L74.2,16.1761917 L74.2,25.8348933 L71.7869423,25.8348933 L71.7869423,24.7682207 C71.1602385,25.5891697 70.2204538,26.069945 69.2265385,26.0865137 L69.0396083,26.0841501 C66.501197,26.0841501 64.6,23.8848253 64.6,21.0000442 C64.6,18.1808263 66.4157609,16.0162616 68.867537,15.9193285 L69.0396083,15.9159382 C70.1042427,15.8704318 71.1253541,16.3636151 71.7869423,17.2428642 Z M91.0954858,15.9130435 C93.882938,15.9276809 95.8,17.9878937 95.8,20.9958776 C95.8,21.2881557 95.7828408,21.5801835 95.7485845,21.8704617 L88.8882938,21.8704617 C89.1490436,23.2646732 90.1479725,23.8721249 91.3745983,23.8721249 C92.272916,23.8551472 93.137448,23.5279079 93.820505,22.9463099 L95.3482785,24.6186319 C94.2770938,25.5621819 92.8997767,26.0823043 91.4757545,26.0869255 L91.2240245,26.082371 C88.2676358,26.082371 86.2,24.062411 86.2,21.0361304 C86.2,18.0098498 88.1978577,15.9130435 91.0954858,15.9130435 Z M107,12 L107,25.8438561 L104.586942,25.8438561 L104.586942,24.8151119 C103.960238,25.6068698 103.020454,26.0705499 102.026539,26.0865294 L101.839608,26.0842499 C99.301197,26.0842499 97.4,23.9631279 97.4,21.1809229 C97.4,18.4619499 99.2190865,16.3743521 101.667764,16.2808657 L101.839608,16.277596 C102.877664,16.2364638 103.875337,16.6886766 104.538194,17.5007763 L104.538194,12 L107,12 Z M102.295756,18.624971 C100.885528,18.624971 99.9279652,19.7597712 99.9279652,21.1915286 C99.9279652,22.6056099 100.847225,23.7580861 102.295756,23.7580861 C103.744287,23.7580861 104.663547,22.6621731 104.663547,21.1915286 C104.663547,19.720884 103.705985,18.624971 102.295756,18.624971 Z M51.9002565,18.9568487 C50.5107365,18.9568487 49.5644558,20.0284888 49.5644558,21.3559397 C49.5644558,22.6730199 50.472041,23.7446599 51.9002565,23.7446599 C53.328472,23.7446599 54.2255038,22.7075889 54.2255038,21.3559397 C54.2255038,20.0042904 53.2897765,18.9568487 51.9002565,18.9568487 Z M69.4957563,18.3498577 C68.0855277,18.3498577 67.1279652,19.5264965 67.1279652,21.0110408 C67.1279652,22.4772574 68.0472252,23.6722239 69.4957563,23.6722239 C70.9442873,23.6722239 71.8635473,22.535906 71.8635473,21.0110408 C71.8635473,19.4861756 70.9059848,18.3498577 69.4957563,18.3498577 Z M91.0771232,18.1672017 C89.8394797,18.1672017 89.1270084,18.8954119 88.8993114,20.0993374 L93.1851568,20.0993374 C92.9464422,18.8551591 92.2045907,18.1672017 91.0771232,18.1672017 Z" id="Shape" fill-rule="nonzero"></path>
                <path d="M17.5038606,0 L0.593341139,10.1333112 L0.545826333,10.1090872 L0,10.4364066 L0,30.5901807 L17.4967334,41 L35,30.5724558 L35,10.4387699 L34.4191315,10.0872266 L31.5379525,8.34546214 L31.5474554,8.33541805 L29.1930968,6.91211056 L23.3232364,10.43168 L23.3351151,4.18661556 L23.336303,4.1854339 L23.336303,3.51838776 L23.336303,3.50420786 L22.7560284,3.15384615 L22.7435558,3.1609361 L17.5038606,0 Z M1.76517504,10.8104015 L17.5014848,1.38017696 L21.5913218,3.84807044 L13.4193691,8.72359282 L5.83838178,13.2475718 L1.76517504,10.8104015 Z M6.43172292,14.270888 L13.7644453,9.89579791 L22.1460571,4.89561057 L22.1341784,11.14422 L12.2606017,17.0649192 L12.2576321,17.0661008 L11.9505676,17.2504395 L11.9487858,17.2533937 L11.6292488,17.4483673 L11.6292488,18.0793729 L11.6292488,22.9188547 L6.43172292,26.0567484 L6.43172292,14.270888 Z M17.1516571,19.9487564 L17.1463117,19.9458022 L17.0673183,19.8997176 L16.8885438,19.79455 L14.6903901,18.504179 L13.4116479,17.753826 L15.4066758,16.5579877 L29.190721,8.29346918 L33.280558,10.7660893 L17.5240544,20.167954 L17.1516571,19.9487564 Z M18.0906684,21.2078134 L28.6983489,14.8788512 L33.8121299,11.8272185 L33.8121299,29.9024555 L17.4967334,39.623368 L1.18727621,29.9195896 L1.18727621,11.8443525 L5.24385277,14.270888 L5.24385277,26.8667752 L5.24207097,27.3453469 L5.63763173,27.5810877 L5.91796908,27.749474 L5.91915695,27.7488832 L17.4943576,34.6403147 L29.501943,27.628354 L29.7555533,27.4812376 L29.7555533,27.4800559 L29.7555533,19.1103698 L23.9712196,22.5147275 L23.9712196,22.5117734 L23.8138268,22.6074877 L23.272158,22.9259446 L22.1418996,23.5906274 L18.0906684,25.975214 L18.0906684,21.2078134 Z M12.8171189,23.5445428 L12.8171189,22.201588 L12.8171189,18.7771421 L13.0053963,18.8876272 L16.4674439,20.932487 L16.5814794,21.0004323 L16.9027983,21.1912701 L16.9027983,25.9704874 L12.8171189,23.5445428 Z M24.4291435,23.6178056 L28.5676831,21.1824077 L28.5676831,26.096334 L24.4291435,23.6178056 Z M7.06782739,27.0552497 L11.700521,24.2582644 L14.6012999,25.9793498 L17.4949516,27.6980719 L17.4955455,27.6986627 L17.4961394,27.6986627 L17.8329006,27.5007349 L18.0906684,27.3494827 L18.0906684,27.348301 L23.2650308,24.3031674 L23.7894755,24.619261 L23.7894755,24.6163069 L27.9992873,27.1356025 L17.500297,33.2672277 L7.06782739,27.0552497 Z" id="Fill-1"></path>
            </g>
        </g>
    </g>
</svg>