<?xml version="1.0" encoding="UTF-8"?>
<svg width="57px" height="68px" viewBox="0 0 57 68" version="1.1" xmlns="http://www.w3.org/2000/svg" xmlns:xlink="http://www.w3.org/1999/xlink">
    <!-- Generator: Sketch 62 (91390) - https://sketch.com -->
    <title>logo-glazed</title>
    <desc>Created with Sketch.</desc>
    <g id="Page-1" stroke="none" stroke-width="1" fill="none" fill-rule="evenodd">
        <g id="logo-glazed" transform="translate(-1.000000, -1.000000)" fill-rule="nonzero">
            <g id="Group_33" transform="translate(0.191000, 0.099000)">
                <polygon id="Path_144" fill="#024DD1" points="29.324 57.21 48.957 45.676 29.285 33.834 9.69 45.458"></polygon>
                <polygon id="Path_145" fill="#0E4AA0" points="9.691 45.618 38.109 28.364 38.15 6.264 9.691 23.331"></polygon>
                <polygon id="Path_146" fill="#537EED" points="9.691 23.326 38.15 6.26 29.328 0.901 0.81 18.084"></polygon>
                <polygon id="Path_147" fill="#0E4AA0" points="40.155 28.567 48.955 33.834 48.955 45.676 39.071 39.726"></polygon>
                <polygon id="Path_148" fill="#2962F6" points="20.438 29.749 29.324 35.034 29.324 45.457 20.438 40.152"></polygon>
                <polygon id="Path_149" fill="#2962F6" points="29.324 35.034 29.324 45.457 48.957 33.833 48.957 45.675 29.324 57.21 9.691 45.457 9.691 23.326 0.861 18.019 0.861 50.947 29.324 67.967 57.787 50.92 57.787 17.987"></polygon>
                <polygon id="Path_150" fill="#537EED" points="29.37 35.034 57.829 17.967 49.007 12.608 20.489 29.791"></polygon>
            </g>
        </g>
    </g>
</svg>