<svg xmlns="http://www.w3.org/2000/svg" width="195.753" height="67.065" viewBox="0 0 195.753 67.065">
  <g id="Group_34" data-name="Group 34" transform="translate(-799.809 -552.901)">
    <g id="Group_32" data-name="Group 32">
      <path id="Path_138" data-name="Path 138" d="M893.106,580.3v-2.056h4.874v16.925c0,5.939-3.865,9.5-9.957,9.5a14.619,14.619,0,0,1-8.072-2.228l1.77-4.055a10.856,10.856,0,0,0,6.092,1.885c3.084,0,5.255-1.694,5.255-4.893v-1.294a6.961,6.961,0,0,1-5.673,2.494c-4.493,0-8.491-3.751-8.491-9.405,0-5.674,4-9.424,8.491-9.424A6.936,6.936,0,0,1,893.106,580.3Zm-9.1,6.873a4.641,4.641,0,1,0,4.646-4.855A4.58,4.58,0,0,0,884.005,587.172Z" fill="#26313d"/>
      <path id="Path_139" data-name="Path 139" d="M903.2,596.691V569.276h4.969v27.415Z" fill="#26313d"/>
      <path id="Path_140" data-name="Path 140" d="M926.693,596.691v-2.037a6.743,6.743,0,0,1-5.522,2.513c-5.1,0-8.928-4.17-8.928-9.71s3.826-9.709,8.928-9.709a6.7,6.7,0,0,1,5.522,2.532v-2.037h4.854v18.448Zm-9.367-9.234c0,2.818,1.847,5.083,4.759,5.083,2.837,0,4.759-2.17,4.759-5.083s-1.922-5.083-4.759-5.083C919.173,582.374,917.326,584.639,917.326,587.457Z" fill="#26313d"/>
      <path id="Path_141" data-name="Path 141" d="M942.821,592.255h9.31v4.436H935.987v-3.579L945.3,582.66H936.31v-4.417h15.612v3.636Z" fill="#26313d"/>
      <path id="Path_142" data-name="Path 142" d="M973.342,587.438a14.484,14.484,0,0,1-.095,1.675H960.168a4.429,4.429,0,0,0,4.74,3.827,7.394,7.394,0,0,0,4.665-1.77l2.912,3.2a11.193,11.193,0,0,1-7.862,2.8c-5.635,0-9.576-3.865-9.576-9.653s3.807-9.766,9.328-9.766C969.686,577.748,973.342,581.689,973.342,587.438Zm-13.156-1.713h8.168c-.457-2.38-1.866-3.694-4.017-3.694C961.976,582.031,960.625,583.421,960.186,585.725Z" fill="#26313d"/>
      <path id="Path_143" data-name="Path 143" d="M990.613,580.165V569.276h4.949v27.415h-4.854v-2.037a6.742,6.742,0,0,1-5.522,2.513c-5.1,0-8.928-4.17-8.928-9.71s3.827-9.709,8.928-9.709A6.707,6.707,0,0,1,990.613,580.165Zm-9.272,7.292c0,2.818,1.847,5.083,4.759,5.083,2.838,0,4.76-2.17,4.76-5.083s-1.922-5.083-4.76-5.083C983.188,582.374,981.341,584.639,981.341,587.457Z" fill="#26313d"/>
    </g>
    <g id="Group_33" data-name="Group 33">
      <path id="Path_144" data-name="Path 144" d="M828.324,609.21l19.633-11.534-19.672-11.842-19.595,11.624Z" fill="#024dd1"/>
      <path id="Path_145" data-name="Path 145" d="M808.691,597.618l28.418-17.254.041-22.1-28.459,17.067Z" fill="#0e4aa0"/>
      <path id="Path_146" data-name="Path 146" d="M808.691,575.326,837.15,558.26l-8.822-5.359-28.518,17.183Z" fill="#537eed"/>
      <path id="Path_147" data-name="Path 147" d="M839.155,580.567l8.8,5.267v11.842l-9.884-5.95Z" fill="#0e4aa0"/>
      <path id="Path_148" data-name="Path 148" d="M819.438,581.749l8.886,5.285v10.423l-8.886-5.305Z" fill="#2962f6"/>
      <path id="Path_149" data-name="Path 149" d="M828.324,587.034v10.423l19.633-11.624v11.842L828.324,609.21l-19.633-11.753V575.326l-8.83-5.307v32.928l28.463,17.02,28.463-17.047V569.987Z" fill="#2962f6"/>
      <path id="Path_150" data-name="Path 150" d="M828.37,587.034l28.459-17.067-8.822-5.359-28.518,17.183Z" fill="#537eed"/>
    </g>
  </g>
</svg>
